<svg width="583" height="120" viewBox="0 0 583 120" fill="none" xmlns="http://www.w3.org/2000/svg">
<path d="M12.8516 51.2734C12.6693 51.0911 12.5781 50.7266 12.5781 50.1797C12.5781 49.2227 12.6465 48.7441 12.7832 48.7441C13.1478 48.7441 13.6719 48.653 14.3555 48.4707C15.0391 48.2884 15.6771 48.0605 16.2695 47.7871C16.862 47.5137 17.2038 47.263 17.2949 47.0352C17.4772 46.3971 17.5911 45.6452 17.6367 44.7793C17.7279 43.9134 17.7734 42.9108 17.7734 41.7715V17.0254C17.7734 13.4707 17.5911 11.3743 17.2266 10.7363L16.8848 10.1211C16.7025 9.9388 16.11 9.80208 15.1074 9.71094C14.1048 9.57422 12.9427 9.50586 11.6211 9.50586C9.7526 9.50586 8.22591 10.0299 7.04102 11.0781C5.85612 12.0807 4.94466 13.7897 4.30664 16.2051C4.21549 16.4329 3.98763 16.5469 3.62305 16.5469C2.62044 16.5469 1.95964 16.3874 1.64062 16.0684L2.93945 4.92578C3.94206 5.15365 4.83073 5.33594 5.60547 5.47266C6.38021 5.60938 7.0638 5.67773 7.65625 5.67773C9.98047 5.67773 12.4642 5.74609 15.1074 5.88281C17.7962 6.01953 20.3027 6.08789 22.627 6.08789C24.9512 6.08789 27.4577 6.01953 30.1465 5.88281C32.8353 5.74609 35.3418 5.67773 37.666 5.67773C38.2585 5.67773 38.9421 5.60938 39.7168 5.47266C40.4915 5.33594 41.3802 5.15365 42.3828 4.92578L43.6816 16.1367C43.3626 16.4557 42.7018 16.6152 41.6992 16.6152C41.3346 16.6152 41.1068 16.5013 41.0156 16.2734C39.8763 11.7617 37.4382 9.50586 33.7012 9.50586C30.0553 9.50586 28.1185 9.91602 27.8906 10.7363C27.7083 11.3743 27.5716 12.1947 27.4805 13.1973C27.3893 14.1999 27.3438 15.4076 27.3438 16.8203V41.498C27.3438 42.6374 27.3893 43.6628 27.4805 44.5742C27.5716 45.4857 27.7083 46.306 27.8906 47.0352C27.9818 47.2174 28.3008 47.4453 28.8477 47.7188C29.4401 47.9922 30.0553 48.2428 30.6934 48.4707C31.377 48.653 31.8555 48.7441 32.1289 48.7441C32.3112 48.7441 32.4023 49.1771 32.4023 50.043C32.4023 50.4987 32.3568 50.9089 32.2656 51.2734C32.0833 51.2734 31.6504 51.2507 30.9668 51.2051C30.2832 51.1595 29.349 51.0911 28.1641 51C26.9792 50.9089 25.931 50.8405 25.0195 50.7949C24.1081 50.7493 23.3561 50.7266 22.7637 50.7266C21.9434 50.7266 20.8268 50.7721 19.4141 50.8633C18.0013 50.9544 16.6569 51.0228 15.3809 51.0684C14.1504 51.1595 13.3073 51.2279 12.8516 51.2734ZM47.5098 51.2734C47.3275 51.0911 47.2363 50.6126 47.2363 49.8379C47.2363 49.1087 47.3275 48.7441 47.5098 48.7441C47.8743 48.7441 48.3984 48.653 49.082 48.4707C49.7656 48.2428 50.4036 47.9922 50.9961 47.7188C51.5885 47.4453 51.9076 47.2174 51.9531 47.0352C52.2721 45.7591 52.4316 44.0273 52.4316 41.8398V14.7012C52.4316 13.653 52.3861 12.7188 52.2949 11.8984C52.2493 11.0781 52.181 10.3717 52.0898 9.7793C51.9076 9.05013 50.7227 8.68555 48.5352 8.68555H47.9199C47.6465 8.68555 47.5098 8.22982 47.5098 7.31836C47.5098 6.54362 47.6465 6.15625 47.9199 6.15625C50.5632 5.92839 53.0469 5.54102 55.3711 4.99414C57.7409 4.44727 59.4271 4.01432 60.4297 3.69531L61.1133 3.49023H61.25C61.4323 3.49023 61.6146 3.62695 61.7969 3.90039C61.9792 4.17383 62.0931 4.42448 62.1387 4.65234C61.5918 6.70312 61.3184 9.00456 61.3184 11.5566V24.2715C61.3184 24.5905 61.4095 24.75 61.5918 24.75C61.6374 24.75 61.7513 24.6589 61.9336 24.4766C62.9362 23.3372 64.349 22.403 66.1719 21.6738C67.9948 20.8991 69.8861 20.5117 71.8457 20.5117C74.4889 20.5117 76.6309 21.6283 78.2715 23.8613C79.9577 26.0944 80.8008 29.4896 80.8008 34.0469V40.8145C80.8008 43.8223 80.9603 45.8958 81.2793 47.0352C81.3704 47.2174 81.7122 47.4453 82.3047 47.7188C82.8971 47.9922 83.5124 48.2428 84.1504 48.4707C84.834 48.653 85.3125 48.7441 85.5859 48.7441C85.6771 48.7441 85.7454 48.9264 85.791 49.291C85.8366 49.6556 85.8594 50.043 85.8594 50.4531C85.8594 50.8633 85.8138 51.1367 85.7227 51.2734C85.4492 51.2734 84.9251 51.2279 84.1504 51.1367C83.3757 51.0911 82.4642 51.0456 81.416 51C80.4134 50.9089 79.4564 50.8405 78.5449 50.7949C77.6335 50.7493 76.9043 50.7266 76.3574 50.7266C75.6283 50.7266 74.6029 50.7721 73.2812 50.8633C72.0052 50.9544 70.7747 51.0228 69.5898 51.0684C68.4049 51.1595 67.6302 51.2279 67.2656 51.2734C67.0833 51.0911 66.9922 50.6126 66.9922 49.8379C66.9922 49.1087 67.0833 48.7441 67.2656 48.7441C67.6302 48.7441 68.1087 48.653 68.7012 48.4707C69.3392 48.2428 69.9316 47.9922 70.4785 47.7188C71.071 47.4453 71.39 47.2174 71.4355 47.0352C71.7546 45.7591 71.9141 44.0273 71.9141 41.8398V35.6875C71.9141 32.3151 71.4583 29.9225 70.5469 28.5098C69.6354 27.0514 68.1543 26.3223 66.1035 26.3223C62.9134 26.3223 61.3184 27.3249 61.3184 29.3301V40.8145C61.3184 43.8223 61.4779 45.8958 61.7969 47.0352C61.888 47.2174 62.207 47.4453 62.7539 47.7188C63.3008 47.9922 63.8932 48.2428 64.5312 48.4707C65.1693 48.653 65.6022 48.7441 65.8301 48.7441C65.9212 48.7441 65.9896 48.9264 66.0352 49.291C66.0807 49.6556 66.1035 50.043 66.1035 50.4531C66.1035 50.8633 66.0579 51.1367 65.9668 51.2734C65.6022 51.2279 64.8275 51.1595 63.6426 51.0684C62.4577 51.0228 61.2044 50.9544 59.8828 50.8633C58.6068 50.7721 57.6042 50.7266 56.875 50.7266C56.3281 50.7266 55.5762 50.7493 54.6191 50.7949C53.7077 50.8405 52.7507 50.9089 51.748 51C50.7454 51.0456 49.8568 51.0911 49.082 51.1367C48.3073 51.2279 47.7832 51.2734 47.5098 51.2734ZM102.266 51.4785C99.4857 51.4785 96.9108 50.7721 94.541 49.3594C92.2168 47.9466 90.3483 46.0553 88.9355 43.6855C87.5684 41.3158 86.8848 38.7181 86.8848 35.8926C86.8848 32.9759 87.5 30.3555 88.7305 28.0312C90.0065 25.707 91.7611 23.8613 93.9941 22.4941C96.2272 21.127 98.8021 20.4434 101.719 20.4434C104.59 20.4434 107.028 21.127 109.033 22.4941C111.084 23.8158 112.633 25.4792 113.682 27.4844C114.775 29.444 115.322 31.4264 115.322 33.4316C115.322 34.4798 115.094 35.1634 114.639 35.4824C114.229 35.8014 113.385 35.9609 112.109 35.9609H96.6602C96.3867 35.9609 96.25 36.1204 96.25 36.4395C96.25 38.0801 96.5462 39.6296 97.1387 41.0879C97.7767 42.5462 98.6882 43.7311 99.873 44.6426C101.104 45.554 102.585 46.0098 104.316 46.0098C105.866 46.0098 107.301 45.7819 108.623 45.3262C109.535 45.0527 110.241 44.8021 110.742 44.5742C111.243 44.3464 111.699 44.0957 112.109 43.8223C112.565 43.5033 113.089 43.1159 113.682 42.6602C114.092 42.8424 114.297 43.2754 114.297 43.959C114.297 44.5514 114.206 45.0072 114.023 45.3262C113.75 46.0553 113.021 46.8984 111.836 47.8555C110.697 48.8125 109.284 49.6556 107.598 50.3848C105.957 51.1139 104.18 51.4785 102.266 51.4785ZM96.7285 32.2012H105.41C106.048 32.2012 106.367 31.7682 106.367 30.9023C106.367 29.1706 105.889 27.6211 104.932 26.2539C104.02 24.8867 102.835 24.2031 101.377 24.2031C100.055 24.2031 99.0072 24.6816 98.2324 25.6387C97.5033 26.5501 96.9792 27.5755 96.6602 28.7148C96.3867 29.8542 96.25 30.7884 96.25 31.5176C96.25 31.9733 96.4095 32.2012 96.7285 32.2012ZM23.4473 111.615C20.4395 111.615 17.6139 111.023 14.9707 109.838C12.373 108.653 10.0716 107.012 8.06641 104.916C6.0612 102.82 4.48893 100.404 3.34961 97.6699C2.25586 94.9355 1.70898 92.0417 1.70898 88.9883C1.70898 85.7526 2.27865 82.722 3.41797 79.8965C4.60286 77.071 6.2207 74.5645 8.27148 72.377C10.3223 70.1895 12.6921 68.4805 15.3809 67.25C18.1152 66.0195 21.0547 65.4043 24.1992 65.4043C26.7057 65.4043 29.2578 65.5866 31.8555 65.9512C34.4531 66.2702 37.1191 66.7487 39.8535 67.3867C39.9902 67.3867 40.127 67.9108 40.2637 68.959C40.446 69.9616 40.6283 71.1693 40.8105 72.582C40.9928 73.9492 41.1296 75.2253 41.2207 76.4102C41.3574 77.5495 41.4258 78.2786 41.4258 78.5977C41.4258 78.9622 41.0156 79.1445 40.1953 79.1445C39.3294 79.1445 38.623 79.0306 38.0762 78.8027C37.8483 77.9368 37.4837 77.0482 36.9824 76.1367C36.4811 75.2253 35.7292 74.1999 34.7266 73.0605C33.724 71.9212 32.334 71.0098 30.5566 70.3262C28.7793 69.597 26.7741 69.2324 24.541 69.2324C16.3379 69.2324 12.2363 75.2936 12.2363 87.416C12.2363 90.7428 12.6921 93.9102 13.6035 96.918C14.196 98.8776 15.0846 100.678 16.2695 102.318C17.5 103.959 18.9811 105.281 20.7129 106.283C22.4902 107.286 24.4954 107.787 26.7285 107.787C28.7793 107.787 30.2376 107.423 31.1035 106.693C31.6048 106.283 31.8555 105.6 31.8555 104.643V99.8574C31.8555 97.4421 31.696 95.6875 31.377 94.5938C31.0579 93.3633 29.554 92.748 26.8652 92.748C26.7741 92.748 26.6829 92.5658 26.5918 92.2012C26.5462 91.8366 26.5462 91.4492 26.5918 91.0391C26.6374 90.5833 26.7057 90.3099 26.7969 90.2188C28.6198 90.3099 30.4427 90.401 32.2656 90.4922C34.0885 90.5833 35.6608 90.6289 36.9824 90.6289C37.666 90.6289 40.7422 90.4922 46.2109 90.2188C46.3477 90.6289 46.416 91.0846 46.416 91.5859C46.416 92.4062 46.3249 92.8164 46.1426 92.8164C45.0944 92.8164 43.8867 93.1582 42.5195 93.8418C41.7904 94.1608 41.4258 95.9609 41.4258 99.2422V103.207C41.4258 104.027 41.4941 104.643 41.6309 105.053C41.7676 105.463 41.8359 105.714 41.8359 105.805C41.8359 106.579 41.3574 107.217 40.4004 107.719C38.7142 108.585 37.4154 109.2 36.5039 109.564C35.5469 109.975 33.8607 110.43 31.4453 110.932C29.0755 111.387 26.4095 111.615 23.4473 111.615ZM49.2188 111.273C49.0365 111.091 48.9453 110.749 48.9453 110.248C48.9453 109.291 48.9909 108.812 49.082 108.812C49.4466 108.812 49.9935 108.699 50.7227 108.471C51.4518 108.243 52.1582 107.969 52.8418 107.65C53.571 107.286 54.0267 106.944 54.209 106.625C54.5736 106.078 54.9609 105.417 55.3711 104.643C55.7812 103.822 56.0775 103.161 56.2598 102.66L56.6016 101.84L71.709 67.1133C72.2103 65.9284 73.0534 65.3359 74.2383 65.3359C74.9219 65.3359 75.4688 65.6322 75.8789 66.2246L89.8926 100.883C90.3027 101.931 90.6901 102.934 91.0547 103.891C91.4648 104.802 91.8294 105.668 92.1484 106.488C92.3307 106.944 92.7409 107.354 93.3789 107.719C94.0169 108.038 94.7005 108.288 95.4297 108.471C96.2044 108.653 96.7969 108.744 97.207 108.744C97.3893 108.744 97.4805 109.132 97.4805 109.906C97.4805 110.635 97.4349 111.091 97.3438 111.273L93.1738 111C91.8522 110.909 90.7129 110.84 89.7559 110.795C88.7988 110.704 88.0241 110.681 87.4316 110.727L77.1094 111.273C76.9271 111.091 76.8359 110.613 76.8359 109.838C76.8359 109.109 76.9271 108.744 77.1094 108.744C78.112 108.744 79.1374 108.539 80.1855 108.129C81.2337 107.673 81.7578 107.081 81.7578 106.352C81.7578 106.306 81.6211 105.896 81.3477 105.121C81.1198 104.346 80.6868 103.23 80.0488 101.771L77.998 96.7812C77.8158 96.599 77.6562 96.5078 77.5195 96.5078C77.0638 96.4622 76.2891 96.4395 75.1953 96.4395C74.1016 96.4395 72.6888 96.4395 70.957 96.4395C69.4531 96.4395 68.1087 96.4395 66.9238 96.4395C65.7845 96.4395 64.8275 96.4622 64.0527 96.5078C63.8704 96.5078 63.7109 96.6217 63.5742 96.8496L61.3184 102.045C60.5436 103.868 60.0879 105.189 59.9512 106.01C59.86 106.83 60.2702 107.468 61.1816 107.924C62.002 108.334 62.7083 108.585 63.3008 108.676C63.9388 108.721 64.4857 108.744 64.9414 108.744C65.0781 108.79 65.1465 109.154 65.1465 109.838C65.1465 110.43 65.1009 110.909 65.0098 111.273C62.959 111.137 61.4551 111.023 60.498 110.932C59.5866 110.84 58.903 110.795 58.4473 110.795C57.9915 110.749 57.4902 110.749 56.9434 110.795C56.4421 110.84 55.6217 110.909 54.4824 111C53.3431 111.046 51.5885 111.137 49.2188 111.273ZM70.957 92.3379C71.8685 92.3379 72.7116 92.3379 73.4863 92.3379C74.3066 92.2923 75.0814 92.2467 75.8105 92.2012L76.0156 91.8594L71.0938 79.623L65.7617 91.8594C65.7617 92.0417 65.8073 92.1328 65.8984 92.1328C67.2656 92.2695 68.9518 92.3379 70.957 92.3379ZM120.996 111.479C117.988 111.479 115.163 110.886 112.52 109.701C109.876 108.516 107.552 106.898 105.547 104.848C103.542 102.751 101.969 100.359 100.83 97.6699C99.6908 94.9355 99.1211 92.0417 99.1211 88.9883C99.1211 85.7526 99.6908 82.722 100.83 79.8965C101.969 77.0254 103.542 74.5189 105.547 72.377C107.598 70.1895 109.99 68.4805 112.725 67.25C115.505 66.0195 118.49 65.4043 121.68 65.4043C124.186 65.4043 126.738 65.5866 129.336 65.9512C131.934 66.2702 134.6 66.7487 137.334 67.3867C137.607 67.4779 137.904 69.0046 138.223 71.9668C138.405 73.653 138.542 74.9746 138.633 75.9316C138.77 76.8887 138.724 77.5723 138.496 77.9824C138.268 78.347 137.721 78.5293 136.855 78.5293L135.762 78.3242C135.534 77.5039 135.169 76.638 134.668 75.7266C134.167 74.8151 133.392 73.8353 132.344 72.7871C131.341 71.7389 129.928 70.8958 128.105 70.2578C126.283 69.5742 124.255 69.2324 122.021 69.2324C113.864 69.2324 109.785 75.3392 109.785 87.5527C109.785 91.3353 110.332 94.776 111.426 97.875C112.565 100.928 114.206 103.344 116.348 105.121C118.535 106.898 121.156 107.787 124.209 107.787C127.581 107.787 130.498 106.557 132.959 104.096C133.688 103.367 134.235 102.546 134.6 101.635C135.01 100.678 135.306 99.8346 135.488 99.1055C135.716 98.3763 135.921 98.0117 136.104 98.0117C137.972 98.0117 138.997 98.2396 139.18 98.6953C139.18 99.0143 139.066 99.6979 138.838 100.746C138.656 101.749 138.405 102.865 138.086 104.096C137.812 105.281 137.516 106.329 137.197 107.24C136.878 108.106 136.605 108.585 136.377 108.676C131.182 110.544 126.055 111.479 120.996 111.479ZM143.076 111.273C142.894 111.091 142.803 110.704 142.803 110.111C142.803 109.2 142.848 108.744 142.939 108.744C143.304 108.744 143.828 108.676 144.512 108.539C145.241 108.357 145.902 108.129 146.494 107.855C147.087 107.582 147.428 107.331 147.52 107.104C147.839 105.964 147.998 104.118 147.998 101.566V75.4531C147.998 72.582 147.839 70.8047 147.52 70.1211C147.383 69.7565 147.018 69.4375 146.426 69.1641C145.879 68.8906 145.286 68.6855 144.648 68.5488C144.056 68.3665 143.577 68.2754 143.213 68.2754C143.031 68.2754 142.939 67.8197 142.939 66.9082C142.939 66.2246 142.985 65.8372 143.076 65.7461L152.578 66.1562C153.171 66.2018 154.287 66.179 155.928 66.0879C157.614 65.9967 159.824 65.8828 162.559 65.7461C162.695 65.9284 162.764 66.4069 162.764 67.1816C162.764 67.9108 162.673 68.2754 162.49 68.2754C162.217 68.2754 161.738 68.3665 161.055 68.5488C160.417 68.7311 159.779 68.959 159.141 69.2324C158.548 69.4603 158.206 69.6882 158.115 69.916C157.751 70.9186 157.568 72.8555 157.568 75.7266V85.4336L157.705 85.6387L165.908 85.7754C166.546 85.7754 167.526 85.7754 168.848 85.7754C170.169 85.7298 171.855 85.6842 173.906 85.6387C173.997 85.5475 174.043 85.4564 174.043 85.3652V75.4531C174.043 72.9922 173.883 71.1921 173.564 70.0527C173.473 69.7793 173.132 69.5059 172.539 69.2324C171.992 68.959 171.4 68.7311 170.762 68.5488C170.124 68.3665 169.622 68.2754 169.258 68.2754C169.167 68.2754 169.076 68.0931 168.984 67.7285C168.939 67.3639 168.939 66.9766 168.984 66.5664C169.03 66.1107 169.098 65.8372 169.189 65.7461L179.375 66.1562C180.059 66.1562 183.135 66.0195 188.604 65.7461C188.74 66.1562 188.809 66.5664 188.809 66.9766C188.809 67.8424 188.695 68.2754 188.467 68.2754C188.193 68.2754 187.715 68.3665 187.031 68.5488C186.393 68.7311 185.778 68.959 185.186 69.2324C184.593 69.4603 184.251 69.6882 184.16 69.916C183.978 70.5996 183.841 71.4199 183.75 72.377C183.659 73.334 183.613 74.4505 183.613 75.7266V101.293C183.613 102.523 183.659 103.617 183.75 104.574C183.841 105.531 183.978 106.374 184.16 107.104C184.251 107.286 184.57 107.514 185.117 107.787C185.71 108.015 186.325 108.22 186.963 108.402C187.646 108.585 188.125 108.676 188.398 108.676C188.581 108.676 188.672 109.154 188.672 110.111C188.672 110.476 188.604 110.863 188.467 111.273C188.285 111.273 187.852 111.251 187.168 111.205C186.484 111.16 185.573 111.091 184.434 111C183.294 110.909 182.292 110.84 181.426 110.795C180.56 110.749 179.831 110.727 179.238 110.727C178.646 110.727 177.826 110.749 176.777 110.795C175.775 110.84 174.727 110.909 173.633 111C172.585 111.046 171.628 111.091 170.762 111.137C169.896 111.228 169.326 111.273 169.053 111.273C168.962 111.137 168.893 110.863 168.848 110.453C168.802 110.043 168.802 109.656 168.848 109.291C168.939 108.926 169.03 108.744 169.121 108.744C169.486 108.744 170.01 108.653 170.693 108.471C171.377 108.288 172.015 108.061 172.607 107.787C173.2 107.468 173.542 107.195 173.633 106.967C173.906 105.919 174.043 104.118 174.043 101.566V90.1504L173.906 89.877L165.908 89.7402C160.257 89.7858 157.432 89.8542 157.432 89.9453L157.568 90.082V101.293C157.568 102.478 157.614 103.549 157.705 104.506C157.796 105.463 157.933 106.306 158.115 107.035C158.206 107.217 158.525 107.445 159.072 107.719C159.665 107.992 160.28 108.243 160.918 108.471C161.602 108.653 162.08 108.744 162.354 108.744C162.536 108.744 162.627 109.086 162.627 109.77C162.673 110.453 162.627 110.954 162.49 111.273C160.257 111.137 158.366 111.023 156.816 110.932C155.312 110.795 153.945 110.727 152.715 110.727C151.211 110.727 149.684 110.795 148.135 110.932C146.631 111.023 144.945 111.137 143.076 111.273ZM199.268 104.916C194.938 100.359 192.773 94.9128 192.773 88.5781C192.773 85.388 193.343 82.403 194.482 79.623C195.622 76.7975 197.194 74.3366 199.199 72.2402C201.25 70.0983 203.597 68.4349 206.24 67.25C208.883 66.0195 211.709 65.4043 214.717 65.4043C217.725 65.4043 220.55 66.0195 223.193 67.25C225.882 68.4349 228.229 70.0983 230.234 72.2402C232.24 74.3366 233.812 76.7975 234.951 79.623C236.136 82.403 236.729 85.388 236.729 88.5781C236.729 94.9128 234.564 100.359 230.234 104.916C227.272 108.015 223.945 110.066 220.254 111.068C216.562 112.117 212.871 112.117 209.18 111.068C205.534 110.066 202.23 108.015 199.268 104.916ZM215.811 107.855C218.089 107.855 219.98 107.058 221.484 105.463C223.034 103.868 224.173 101.726 224.902 99.0371C225.677 96.3027 226.064 93.2493 226.064 89.877C226.064 87.3704 225.859 84.9779 225.449 82.6992C225.085 80.4206 224.469 78.2331 223.604 76.1367C222.738 73.9948 221.462 72.3086 219.775 71.0781C218.089 69.8477 216.061 69.2324 213.691 69.2324C211.276 69.2324 209.271 70.0983 207.676 71.8301C206.081 73.6074 204.964 75.7721 204.326 78.3242C203.734 80.8763 203.438 83.793 203.438 87.0742C203.438 91.7227 204.326 96.2116 206.104 100.541C207.015 102.729 208.291 104.506 209.932 105.873C211.618 107.195 213.577 107.855 215.811 107.855ZM281.709 111.342C281.208 111.342 280.501 110.818 279.59 109.77L251.768 75.1797V101.361C251.768 103.777 251.95 105.395 252.314 106.215C252.588 106.716 253.135 107.172 253.955 107.582C254.775 107.947 255.618 108.22 256.484 108.402C257.35 108.585 258.011 108.676 258.467 108.676C258.558 108.676 258.626 108.881 258.672 109.291C258.717 109.656 258.74 110.043 258.74 110.453C258.74 110.863 258.695 111.137 258.604 111.273C256.416 111.273 254.548 111.182 252.998 111C251.494 110.818 250.286 110.727 249.375 110.727C248.281 110.727 247.415 110.749 246.777 110.795C246.139 110.84 245.41 110.909 244.59 111C243.815 111.091 242.585 111.182 240.898 111.273C240.762 111.137 240.693 110.727 240.693 110.043C240.693 109.177 240.762 108.744 240.898 108.744C241.947 108.744 243.04 108.539 244.18 108.129C245.365 107.673 246.208 107.012 246.709 106.146C247.165 105.417 247.393 103.754 247.393 101.156V74.291C247.393 71.9212 247.051 70.3034 246.367 69.4375C246.23 69.2096 245.798 69.0273 245.068 68.8906C244.385 68.7083 243.633 68.5716 242.812 68.4805C242.038 68.3438 241.423 68.2754 240.967 68.2754C240.876 68.2754 240.785 68.0931 240.693 67.7285C240.648 67.3639 240.625 66.9766 240.625 66.5664C240.671 66.1107 240.739 65.8372 240.83 65.7461L245.205 66.0195C246.253 66.1107 247.188 66.179 248.008 66.2246C248.874 66.2702 249.603 66.293 250.195 66.293C250.97 66.293 251.904 66.2474 252.998 66.1562C254.137 66.0651 255.436 65.9284 256.895 65.7461C257.806 67.569 259.059 69.5742 260.654 71.7617C262.295 73.9492 264.118 76.2734 266.123 78.7344C268.174 81.1497 270.27 83.6562 272.412 86.2539C274.6 88.8516 276.673 91.4492 278.633 94.0469C278.678 93.8646 278.701 93.5456 278.701 93.0898C278.747 92.6341 278.77 92.0189 278.77 91.2441V75.1797C278.77 72.5365 278.473 70.8958 277.881 70.2578C277.607 69.8932 277.106 69.5742 276.377 69.3008C275.693 68.9818 274.964 68.7311 274.189 68.5488C273.46 68.3665 272.913 68.2754 272.549 68.2754C272.458 68.2754 272.367 68.0931 272.275 67.7285C272.23 67.3639 272.207 66.9766 272.207 66.5664C272.207 66.1107 272.253 65.8372 272.344 65.7461C274.44 65.9284 276.24 66.0651 277.744 66.1562C279.248 66.2474 280.456 66.293 281.367 66.293C282.142 66.293 283.122 66.2474 284.307 66.1562C285.492 66.0651 286.608 65.974 287.656 65.8828C288.75 65.7917 289.479 65.7461 289.844 65.7461C290.026 66.0651 290.117 66.4753 290.117 66.9766C290.117 67.8424 290.003 68.2754 289.775 68.2754C287.314 68.2754 285.423 69.0273 284.102 70.5312C283.464 71.306 283.145 72.9694 283.145 75.5215V101.498C283.145 102.318 283.167 103.526 283.213 105.121C283.258 106.716 283.327 108.699 283.418 111.068C283.236 111.251 282.666 111.342 281.709 111.342ZM308.232 111.273C308.05 111.091 307.959 110.704 307.959 110.111C307.959 109.2 308.005 108.744 308.096 108.744C308.46 108.744 308.984 108.676 309.668 108.539C310.397 108.357 311.058 108.129 311.65 107.855C312.243 107.582 312.585 107.331 312.676 107.104C312.995 105.964 313.154 104.118 313.154 101.566V75.4531C313.154 72.582 312.995 70.8047 312.676 70.1211C312.539 69.7565 312.174 69.4375 311.582 69.1641C311.035 68.8906 310.443 68.6855 309.805 68.5488C309.212 68.3665 308.734 68.2754 308.369 68.2754C308.187 68.2754 308.096 67.8197 308.096 66.9082C308.096 66.2246 308.141 65.8372 308.232 65.7461L317.734 66.1562C318.327 66.2018 319.443 66.179 321.084 66.0879C322.77 65.9967 324.98 65.8828 327.715 65.7461C327.852 65.9284 327.92 66.4069 327.92 67.1816C327.92 67.9108 327.829 68.2754 327.646 68.2754C327.373 68.2754 326.895 68.3665 326.211 68.5488C325.573 68.7311 324.935 68.959 324.297 69.2324C323.704 69.4603 323.363 69.6882 323.271 69.916C322.907 70.9186 322.725 72.8555 322.725 75.7266V85.4336L322.861 85.6387L331.064 85.7754C331.702 85.7754 332.682 85.7754 334.004 85.7754C335.326 85.7298 337.012 85.6842 339.062 85.6387C339.154 85.5475 339.199 85.4564 339.199 85.3652V75.4531C339.199 72.9922 339.04 71.1921 338.721 70.0527C338.63 69.7793 338.288 69.5059 337.695 69.2324C337.148 68.959 336.556 68.7311 335.918 68.5488C335.28 68.3665 334.779 68.2754 334.414 68.2754C334.323 68.2754 334.232 68.0931 334.141 67.7285C334.095 67.3639 334.095 66.9766 334.141 66.5664C334.186 66.1107 334.255 65.8372 334.346 65.7461L344.531 66.1562C345.215 66.1562 348.291 66.0195 353.76 65.7461C353.896 66.1562 353.965 66.5664 353.965 66.9766C353.965 67.8424 353.851 68.2754 353.623 68.2754C353.35 68.2754 352.871 68.3665 352.188 68.5488C351.549 68.7311 350.934 68.959 350.342 69.2324C349.749 69.4603 349.408 69.6882 349.316 69.916C349.134 70.5996 348.997 71.4199 348.906 72.377C348.815 73.334 348.77 74.4505 348.77 75.7266V101.293C348.77 102.523 348.815 103.617 348.906 104.574C348.997 105.531 349.134 106.374 349.316 107.104C349.408 107.286 349.727 107.514 350.273 107.787C350.866 108.015 351.481 108.22 352.119 108.402C352.803 108.585 353.281 108.676 353.555 108.676C353.737 108.676 353.828 109.154 353.828 110.111C353.828 110.476 353.76 110.863 353.623 111.273C353.441 111.273 353.008 111.251 352.324 111.205C351.641 111.16 350.729 111.091 349.59 111C348.451 110.909 347.448 110.84 346.582 110.795C345.716 110.749 344.987 110.727 344.395 110.727C343.802 110.727 342.982 110.749 341.934 110.795C340.931 110.84 339.883 110.909 338.789 111C337.741 111.046 336.784 111.091 335.918 111.137C335.052 111.228 334.482 111.273 334.209 111.273C334.118 111.137 334.049 110.863 334.004 110.453C333.958 110.043 333.958 109.656 334.004 109.291C334.095 108.926 334.186 108.744 334.277 108.744C334.642 108.744 335.166 108.653 335.85 108.471C336.533 108.288 337.171 108.061 337.764 107.787C338.356 107.468 338.698 107.195 338.789 106.967C339.062 105.919 339.199 104.118 339.199 101.566V90.1504L339.062 89.877L331.064 89.7402C325.413 89.7858 322.588 89.8542 322.588 89.9453L322.725 90.082V101.293C322.725 102.478 322.77 103.549 322.861 104.506C322.952 105.463 323.089 106.306 323.271 107.035C323.363 107.217 323.682 107.445 324.229 107.719C324.821 107.992 325.436 108.243 326.074 108.471C326.758 108.653 327.236 108.744 327.51 108.744C327.692 108.744 327.783 109.086 327.783 109.77C327.829 110.453 327.783 110.954 327.646 111.273C325.413 111.137 323.522 111.023 321.973 110.932C320.469 110.795 319.102 110.727 317.871 110.727C316.367 110.727 314.84 110.795 313.291 110.932C311.787 111.023 310.101 111.137 308.232 111.273ZM357.998 111.273C357.816 111.091 357.725 110.704 357.725 110.111C357.725 109.2 357.816 108.744 357.998 108.744C358.363 108.744 358.887 108.676 359.57 108.539C360.254 108.402 360.892 108.22 361.484 107.992C362.077 107.719 362.419 107.468 362.51 107.24C362.783 106.192 362.92 104.187 362.92 101.225V75.3848C362.92 72.8327 362.783 71.0553 362.51 70.0527C362.419 69.7793 362.054 69.5059 361.416 69.2324C360.824 68.9134 360.186 68.6628 359.502 68.4805C358.818 68.2526 358.294 68.1387 357.93 68.1387C357.747 68.1387 357.656 67.7285 357.656 66.9082C357.656 66.179 357.725 65.7461 357.861 65.6094C359.684 65.7005 361.416 65.7917 363.057 65.8828C364.743 65.9284 366.361 65.9512 367.91 65.9512C369.915 65.9512 373.447 65.8828 378.506 65.7461C381.058 65.7005 383.291 65.6777 385.205 65.6777C387.119 65.6322 388.714 65.6094 389.99 65.6094C390.036 65.8372 390.218 66.7943 390.537 68.4805C390.856 70.1667 391.335 72.582 391.973 75.7266C391.745 75.9544 391.221 76.0684 390.4 76.0684C389.899 76.0684 389.58 75.9089 389.443 75.5898C388.896 74.4049 388.076 73.3568 386.982 72.4453C385.934 71.4883 384.772 70.7363 383.496 70.1895C382.266 69.597 381.058 69.3008 379.873 69.3008H377.275C374.359 69.3008 372.878 69.597 372.832 70.1895C372.741 70.7363 372.65 71.4655 372.559 72.377C372.513 73.2428 372.49 74.291 372.49 75.5215V86.0488C372.49 86.3223 373.47 86.459 375.43 86.459H379.053C381.924 86.459 383.473 86.3678 383.701 86.1855C383.929 85.9577 384.111 85.2969 384.248 84.2031C384.339 83.474 384.476 82.8132 384.658 82.2207C384.704 81.9017 385.046 81.7422 385.684 81.7422C386.458 81.7422 386.96 81.8561 387.188 82.084V95.0039C387.005 95.1862 386.527 95.2773 385.752 95.2773C385.16 95.2773 384.795 95.0951 384.658 94.7305C384.111 92.9531 383.747 91.8594 383.564 91.4492C383.382 91.1302 383.245 90.9935 383.154 91.0391C383.109 91.0391 382.972 90.9479 382.744 90.7656C382.106 90.401 380.329 90.2188 377.412 90.2188C374.131 90.2188 372.49 90.4238 372.49 90.834V101.361C372.49 103.503 372.673 105.121 373.037 106.215C373.219 106.944 374.769 107.309 377.686 107.309H379.463C382.288 107.309 384.84 106.716 387.119 105.531C387.894 105.121 388.76 104.346 389.717 103.207C390.719 102.068 391.494 100.792 392.041 99.3789C392.132 99.1055 392.451 98.9688 392.998 98.9688C394.092 98.9688 394.775 99.1055 395.049 99.3789C392.77 105.668 391.54 109.587 391.357 111.137C390.218 111.137 388.714 111.114 386.846 111.068C385.023 111.068 382.835 111.046 380.283 111C377.777 110.954 375.498 110.909 373.447 110.863C371.396 110.772 369.574 110.772 367.979 110.863L357.998 111.273ZM440.371 111.479C438.138 111.479 436.087 111.273 434.219 110.863C432.396 110.408 430.938 109.906 429.844 109.359C428.704 108.812 427.588 107.992 426.494 106.898C425.947 106.352 425.446 105.827 424.99 105.326C424.535 104.825 424.033 104.21 423.486 103.48C422.985 102.706 422.324 101.703 421.504 100.473C420.684 99.1966 419.613 97.5104 418.291 95.4141C416.514 92.7253 415.329 91.2669 414.736 91.0391C414.645 90.9935 414.395 90.9707 413.984 90.9707C413.574 90.9707 413.369 91.3353 413.369 92.0645V101.361C413.369 103.777 413.529 105.645 413.848 106.967C413.939 107.331 414.326 107.65 415.01 107.924C415.693 108.197 416.445 108.402 417.266 108.539C418.086 108.676 418.724 108.744 419.18 108.744C419.362 108.744 419.453 109.177 419.453 110.043C419.453 110.499 419.408 110.909 419.316 111.273C416.582 111.137 414.349 111.023 412.617 110.932C410.885 110.84 409.632 110.818 408.857 110.863L398.877 111.273C398.695 111.091 398.604 110.704 398.604 110.111C398.604 109.2 398.695 108.744 398.877 108.744C399.242 108.744 399.766 108.676 400.449 108.539C401.133 108.402 401.771 108.22 402.363 107.992C402.956 107.719 403.298 107.468 403.389 107.24C403.662 106.192 403.799 104.187 403.799 101.225V75.3848C403.799 72.8327 403.662 71.0553 403.389 70.0527C403.298 69.7793 402.933 69.5059 402.295 69.2324C401.702 68.9134 401.064 68.6628 400.381 68.4805C399.697 68.2526 399.173 68.1387 398.809 68.1387C398.626 68.1387 398.535 67.7285 398.535 66.9082C398.535 66.179 398.604 65.7461 398.74 65.6094C400.837 65.7005 402.705 65.7917 404.346 65.8828C406.032 65.9284 407.513 65.9512 408.789 65.9512C410.977 65.9056 412.686 65.8828 413.916 65.8828C415.146 65.8828 416.081 65.8828 416.719 65.8828C417.357 65.8828 417.904 65.8828 418.359 65.8828C420.182 65.8828 422.005 66.1107 423.828 66.5664C425.697 67.0221 427.406 67.7285 428.955 68.6855C430.505 69.597 431.735 70.7819 432.646 72.2402C433.604 73.653 434.082 75.362 434.082 77.3672C434.082 79.3724 433.672 81.2409 432.852 82.9727C432.031 84.7044 430.96 86.1628 429.639 87.3477C428.363 88.5326 427.041 89.3529 425.674 89.8086C425.309 89.9453 425.241 90.196 425.469 90.5605C426.471 92.2467 427.246 93.5228 427.793 94.3887C428.34 95.2546 428.796 95.9609 429.16 96.5078C429.57 97.0091 430.049 97.6471 430.596 98.4219C431.143 99.151 431.917 100.268 432.92 101.771C433.695 102.865 434.606 103.959 435.654 105.053C436.748 106.101 437.91 106.99 439.141 107.719C440.417 108.402 441.624 108.744 442.764 108.744C442.946 108.926 443.037 109.337 443.037 109.975C443.037 110.521 442.946 110.977 442.764 111.342C442.445 111.387 442.08 111.41 441.67 111.41C441.305 111.456 440.872 111.479 440.371 111.479ZM416.24 87.2109H418.086C419.863 87.2109 421.23 86.4362 422.188 84.8867C423.19 83.3372 423.691 81.2865 423.691 78.7344C423.691 72.6732 421.572 69.6426 417.334 69.6426C415.739 69.6426 414.691 69.8249 414.189 70.1895C413.643 70.5996 413.369 72.8327 413.369 76.8887V84.2715C413.369 85.5475 413.62 86.3678 414.121 86.7324C414.668 87.0514 415.374 87.2109 416.24 87.2109ZM444.404 111.273C444.222 111.091 444.131 110.749 444.131 110.248C444.131 109.291 444.176 108.812 444.268 108.812C444.632 108.812 445.179 108.699 445.908 108.471C446.637 108.243 447.344 107.969 448.027 107.65C448.757 107.286 449.212 106.944 449.395 106.625C449.759 106.078 450.146 105.417 450.557 104.643C450.967 103.822 451.263 103.161 451.445 102.66L451.787 101.84L466.895 67.1133C467.396 65.9284 468.239 65.3359 469.424 65.3359C470.107 65.3359 470.654 65.6322 471.064 66.2246L485.078 100.883C485.488 101.931 485.876 102.934 486.24 103.891C486.65 104.802 487.015 105.668 487.334 106.488C487.516 106.944 487.926 107.354 488.564 107.719C489.202 108.038 489.886 108.288 490.615 108.471C491.39 108.653 491.982 108.744 492.393 108.744C492.575 108.744 492.666 109.132 492.666 109.906C492.666 110.635 492.62 111.091 492.529 111.273L488.359 111C487.038 110.909 485.898 110.84 484.941 110.795C483.984 110.704 483.21 110.681 482.617 110.727L472.295 111.273C472.113 111.091 472.021 110.613 472.021 109.838C472.021 109.109 472.113 108.744 472.295 108.744C473.298 108.744 474.323 108.539 475.371 108.129C476.419 107.673 476.943 107.081 476.943 106.352C476.943 106.306 476.807 105.896 476.533 105.121C476.305 104.346 475.872 103.23 475.234 101.771L473.184 96.7812C473.001 96.599 472.842 96.5078 472.705 96.5078C472.249 96.4622 471.475 96.4395 470.381 96.4395C469.287 96.4395 467.874 96.4395 466.143 96.4395C464.639 96.4395 463.294 96.4395 462.109 96.4395C460.97 96.4395 460.013 96.4622 459.238 96.5078C459.056 96.5078 458.896 96.6217 458.76 96.8496L456.504 102.045C455.729 103.868 455.273 105.189 455.137 106.01C455.046 106.83 455.456 107.468 456.367 107.924C457.188 108.334 457.894 108.585 458.486 108.676C459.124 108.721 459.671 108.744 460.127 108.744C460.264 108.79 460.332 109.154 460.332 109.838C460.332 110.43 460.286 110.909 460.195 111.273C458.145 111.137 456.641 111.023 455.684 110.932C454.772 110.84 454.089 110.795 453.633 110.795C453.177 110.749 452.676 110.749 452.129 110.795C451.628 110.84 450.807 110.909 449.668 111C448.529 111.046 446.774 111.137 444.404 111.273ZM466.143 92.3379C467.054 92.3379 467.897 92.3379 468.672 92.3379C469.492 92.2923 470.267 92.2467 470.996 92.2012L471.201 91.8594L466.279 79.623L460.947 91.8594C460.947 92.0417 460.993 92.1328 461.084 92.1328C462.451 92.2695 464.137 92.3379 466.143 92.3379ZM494.648 111.273C494.466 111.091 494.375 110.704 494.375 110.111C494.375 109.2 494.466 108.744 494.648 108.744C495.013 108.744 495.537 108.676 496.221 108.539C496.904 108.402 497.542 108.22 498.135 107.992C498.727 107.719 499.069 107.468 499.16 107.24C499.434 106.192 499.57 104.187 499.57 101.225V75.1113C499.57 72.3314 499.388 70.6224 499.023 69.9844C498.887 69.7109 498.522 69.4603 497.93 69.2324C497.383 68.959 496.813 68.7311 496.221 68.5488C495.628 68.3665 495.15 68.2754 494.785 68.2754C494.603 68.2754 494.512 67.888 494.512 67.1133C494.512 66.293 494.557 65.8372 494.648 65.7461L504.561 66.1562C505.016 66.2018 506.042 66.179 507.637 66.0879C509.232 65.9967 511.396 65.8828 514.131 65.7461C514.268 66.1562 514.336 66.5664 514.336 66.9766C514.336 67.8424 514.245 68.2754 514.062 68.2754C513.789 68.2754 513.311 68.3665 512.627 68.5488C511.943 68.7311 511.283 68.959 510.645 69.2324C510.052 69.4603 509.71 69.6882 509.619 69.916C509.437 70.5085 509.3 71.2832 509.209 72.2402C509.163 73.1517 509.141 74.1999 509.141 75.3848V101.293C509.141 103.48 509.323 105.121 509.688 106.215C509.87 106.944 511.419 107.309 514.336 107.309H516.113C518.939 107.309 521.491 106.716 523.77 105.531C524.544 105.121 525.41 104.346 526.367 103.207C527.37 102.068 528.145 100.792 528.691 99.3789C528.783 99.1055 529.102 98.9688 529.648 98.9688C530.742 98.9688 531.426 99.1055 531.699 99.3789C529.421 105.668 528.19 109.587 528.008 111.137C526.732 111.137 525.068 111.114 523.018 111.068C521.012 111.068 518.62 111.046 515.84 111C513.06 110.954 510.736 110.909 508.867 110.863C507.044 110.818 505.632 110.818 504.629 110.863L494.648 111.273ZM535.596 111.273C535.413 111.091 535.322 110.704 535.322 110.111C535.322 109.2 535.413 108.744 535.596 108.744C535.96 108.744 536.484 108.676 537.168 108.539C537.852 108.402 538.49 108.22 539.082 107.992C539.674 107.719 540.016 107.468 540.107 107.24C540.381 106.192 540.518 104.187 540.518 101.225V75.3848C540.518 72.8327 540.381 71.0553 540.107 70.0527C540.016 69.7793 539.652 69.5059 539.014 69.2324C538.421 68.9134 537.783 68.6628 537.1 68.4805C536.416 68.2526 535.892 68.1387 535.527 68.1387C535.345 68.1387 535.254 67.7285 535.254 66.9082C535.254 66.179 535.322 65.7461 535.459 65.6094C537.282 65.7005 539.014 65.7917 540.654 65.8828C542.34 65.9284 543.958 65.9512 545.508 65.9512H557.402C561.094 65.9512 564.398 66.5436 567.314 67.7285C570.277 68.9134 572.783 70.5312 574.834 72.582C576.885 74.6328 578.434 76.9798 579.482 79.623C580.576 82.2663 581.123 85.069 581.123 88.0312C581.123 92.4062 580.166 96.3483 578.252 99.8574C576.338 103.321 573.604 106.078 570.049 108.129C566.494 110.18 562.256 111.205 557.334 111.205C556.878 111.205 556.195 111.182 555.283 111.137C554.417 111.137 553.324 111.114 552.002 111.068C550.68 110.977 549.473 110.909 548.379 110.863C547.285 110.818 546.351 110.818 545.576 110.863L535.596 111.273ZM558.428 107.377C562.256 107.377 565.218 105.736 567.314 102.455C569.411 99.1738 570.459 94.2747 570.459 87.7578C570.459 84.3854 569.958 81.3548 568.955 78.666C567.952 75.9316 566.517 73.7669 564.648 72.1719C562.826 70.5768 560.592 69.7793 557.949 69.7793H557.607C553.734 69.7793 551.523 70.1439 550.977 70.873C550.384 71.6478 550.088 73.0833 550.088 75.1797V101.703C550.088 104.665 550.293 106.26 550.703 106.488C551.706 107.081 554.281 107.377 558.428 107.377Z" fill="#0D1C51"/>
</svg>
