<svg width="470" height="106" viewBox="0 0 470 106" fill="none" xmlns="http://www.w3.org/2000/svg">
<path d="M222.424 10.7385C222.284 12.6682 222.179 14.5278 222.109 16.3172C222.073 18.1066 222.056 19.4749 222.056 20.4223C222.056 21.1942 222.073 21.9134 222.109 22.5801C222.144 23.2467 222.179 23.8256 222.214 24.3168H221.003C220.302 21.1942 219.46 18.7381 218.477 16.9487C217.495 15.1243 216.372 13.8436 215.109 13.1068C213.881 12.3349 212.548 11.949 211.109 11.949H210.477V42.0003C210.477 43.4388 210.618 44.5089 210.898 45.2106C211.214 45.9124 211.776 46.386 212.583 46.6316C213.425 46.8422 214.635 46.9474 216.214 46.9474V48C215.056 47.9649 213.495 47.9298 211.53 47.8947C209.6 47.8597 207.583 47.8421 205.478 47.8421C203.408 47.8421 201.46 47.8597 199.636 47.8947C197.811 47.9298 196.338 47.9649 195.215 48V46.9474C196.794 46.9474 198.004 46.8422 198.846 46.6316C199.688 46.386 200.25 45.9124 200.531 45.2106C200.811 44.5089 200.952 43.4388 200.952 42.0003V11.949H200.373C198.899 11.949 197.548 12.3349 196.32 13.1068C195.092 13.8436 193.987 15.1067 193.005 16.8961C192.022 18.6855 191.163 21.1591 190.426 24.3168H189.215C189.285 23.8256 189.32 23.2467 189.32 22.5801C189.356 21.9134 189.373 21.1942 189.373 20.4223C189.373 19.4749 189.338 18.1066 189.268 16.3172C189.233 14.5278 189.145 12.6682 189.005 10.7385C190.654 10.7736 192.461 10.8087 194.426 10.8437C196.425 10.8788 198.408 10.8964 200.373 10.8964C202.337 10.8964 204.127 10.8964 205.741 10.8964C207.355 10.8964 209.144 10.8964 211.109 10.8964C213.109 10.8964 215.091 10.8788 217.056 10.8437C219.021 10.8087 220.81 10.7736 222.424 10.7385ZM235.99 6.84392V24.4221C236.867 22.8081 238.025 21.6678 239.463 21.0012C240.937 20.3346 242.621 20.0012 244.516 20.0012C246.06 20.0012 247.288 20.1942 248.2 20.5802C249.147 20.9661 249.866 21.4573 250.358 22.0538C250.919 22.7204 251.323 23.58 251.568 24.6326C251.814 25.6852 251.937 27.1062 251.937 28.8956V43.1055C251.937 44.5791 252.165 45.5791 252.621 46.1053C253.112 46.6316 253.936 46.8948 255.094 46.8948V48C254.428 47.9649 253.393 47.9298 251.989 47.8947C250.621 47.8246 249.27 47.7895 247.937 47.7895C246.533 47.7895 245.165 47.8246 243.832 47.8947C242.498 47.9298 241.481 47.9649 240.779 48V46.8948C241.762 46.8948 242.446 46.6316 242.832 46.1053C243.218 45.5791 243.411 44.5791 243.411 43.1055V26.3694C243.411 25.5624 243.323 24.8782 243.147 24.3168C242.972 23.7204 242.674 23.2818 242.253 23.0011C241.867 22.6853 241.288 22.5274 240.516 22.5274C239.709 22.5274 238.955 22.738 238.253 23.159C237.586 23.5449 237.042 24.1239 236.621 24.8958C236.2 25.6326 235.99 26.4922 235.99 27.4746V43.1055C235.99 44.5791 236.183 45.5791 236.569 46.1053C236.99 46.6316 237.674 46.8948 238.621 46.8948V48C237.99 47.9649 237.042 47.9298 235.779 47.8947C234.516 47.8246 233.218 47.7895 231.885 47.7895C230.481 47.7895 229.043 47.8246 227.569 47.8947C226.131 47.9298 225.043 47.9649 224.306 48V46.8948C225.464 46.8948 226.271 46.6316 226.727 46.1053C227.218 45.5791 227.464 44.5791 227.464 43.1055V13.1594C227.464 11.5806 227.236 10.4227 226.78 9.6859C226.359 8.91401 225.534 8.52806 224.306 8.52806V7.42285C225.429 7.52811 226.517 7.58074 227.569 7.58074C229.183 7.58074 230.692 7.52811 232.095 7.42285C233.499 7.2825 234.797 7.08953 235.99 6.84392ZM270.738 20.0012C273.825 20.0012 276.246 20.9135 278 22.738C279.755 24.5624 280.632 27.5623 280.632 31.7376H263.738L263.685 30.7376H273.474C273.544 29.0184 273.474 27.4395 273.264 26.001C273.053 24.5274 272.702 23.352 272.211 22.4748C271.755 21.5977 271.141 21.1591 270.369 21.1591C269.317 21.1591 268.422 21.9134 267.685 23.4221C266.948 24.9308 266.492 27.4921 266.317 31.106L266.527 31.4744C266.457 31.8604 266.422 32.2639 266.422 32.6849C266.422 33.0708 266.422 33.4919 266.422 33.948C266.422 36.3689 266.738 38.2987 267.369 39.7372C268.036 41.1757 268.86 42.1932 269.843 42.7897C270.825 43.3862 271.843 43.6844 272.895 43.6844C273.492 43.6844 274.158 43.5967 274.895 43.4213C275.632 43.2458 276.404 42.8774 277.211 42.316C278.018 41.7547 278.79 40.9301 279.527 39.8425L280.421 40.1582C280.035 41.5266 279.369 42.8774 278.421 44.2107C277.509 45.5089 276.334 46.5966 274.895 47.4737C273.457 48.3158 271.72 48.7368 269.685 48.7368C267.369 48.7368 265.299 48.2631 263.475 47.3158C261.65 46.3334 260.194 44.8072 259.106 42.7371C258.054 40.6319 257.528 37.8952 257.528 34.5269C257.528 31.1937 258.107 28.457 259.264 26.3167C260.422 24.1765 262.001 22.5976 264.001 21.5801C266.001 20.5275 268.246 20.0012 270.738 20.0012ZM22.2183 63.0017C24.6393 63.0017 26.6216 63.335 28.1654 64.0016C29.7092 64.6683 31.0951 65.4753 32.3231 66.4226C32.7091 66.7384 33.0599 66.8962 33.3757 66.8962C34.0423 66.8962 34.4809 65.8437 34.6914 63.7385H35.9019C35.8317 65.1069 35.7791 66.791 35.744 68.7909C35.7089 70.7908 35.6914 73.4223 35.6914 76.6853H34.4809C34.2353 74.3696 33.8318 72.4048 33.2704 70.7908C32.7091 69.1418 31.6389 67.7383 30.0601 66.5805C29.2531 65.9138 28.2882 65.4051 27.1655 65.0542C26.0778 64.6683 24.9901 64.4753 23.9024 64.4753C21.9376 64.4753 20.271 65.0191 18.9027 66.1068C17.5694 67.1594 16.4817 68.5628 15.6396 70.3171C14.7976 72.0364 14.1836 73.9661 13.7976 76.1064C13.4468 78.2115 13.2713 80.3342 13.2713 82.4745C13.2713 88.79 14.0783 93.4038 15.6923 96.316C17.3413 99.2281 19.6219 100.684 22.5341 100.684C23.2358 100.684 23.8498 100.614 24.3761 100.474C24.9024 100.298 25.341 100.088 25.6918 99.8422C26.148 99.5264 26.4637 99.158 26.6392 98.7369C26.8146 98.3159 26.9023 97.7896 26.9023 97.1581V91.9478C26.9023 90.2987 26.762 89.0707 26.4813 88.2637C26.2006 87.4217 25.6743 86.8603 24.9024 86.5796C24.1656 86.2638 23.0604 86.0884 21.5868 86.0533V85.0007C22.3586 85.0358 23.2884 85.0709 24.3761 85.106C25.4638 85.106 26.6041 85.1235 27.797 85.1586C28.9899 85.1586 30.0951 85.1586 31.1126 85.1586C32.6915 85.1586 34.1301 85.1411 35.4282 85.106C36.7615 85.0709 37.8492 85.0358 38.6913 85.0007V86.0533C38.0597 86.0884 37.5685 86.2112 37.2176 86.4217C36.9019 86.6322 36.6913 87.0532 36.5861 87.6848C36.4808 88.3163 36.4282 89.2812 36.4282 90.5794V101H35.3756C35.3405 100.404 35.2002 99.7544 34.9546 99.0527C34.709 98.351 34.3055 98.0001 33.7441 98.0001C33.4985 98.0001 33.1476 98.0703 32.6915 98.2106C32.2354 98.351 31.5161 98.6668 30.5337 99.158C29.2355 99.8597 27.8321 100.474 26.3234 101C24.8498 101.491 23.3411 101.737 21.7973 101.737C17.5518 101.737 13.9906 100.982 11.1135 99.4738C8.27155 97.965 6.1313 95.8072 4.69276 93.0004C3.25423 90.1584 2.53496 86.7375 2.53496 82.7377C2.53496 78.7729 3.37703 75.3169 5.06117 72.3697C6.7453 69.4224 9.06099 67.1243 12.0082 65.4753C14.9906 63.8262 18.3939 63.0017 22.2183 63.0017ZM59.2878 63.6859L72.0241 96.5791C72.5504 97.8072 73.0942 98.6668 73.6556 99.158C74.252 99.6492 74.7783 99.9123 75.2345 99.9474V101C74.1117 100.93 72.7609 100.895 71.182 100.895C69.6382 100.86 68.0593 100.842 66.4454 100.842C64.7612 100.842 63.1648 100.86 61.6561 100.895C60.1474 100.895 58.9369 100.93 58.0247 101V99.9474C59.8141 99.8772 60.9544 99.579 61.4456 99.0527C61.9368 98.4913 61.8315 97.316 61.1298 95.5266L52.3934 71.6329L53.446 70.054L45.7621 89.8952C44.9551 92.0004 44.4639 93.7021 44.2885 95.0003C44.113 96.2985 44.2007 97.2984 44.5516 98.0001C44.9025 98.7019 45.4463 99.1931 46.1831 99.4738C46.955 99.7544 47.8673 99.9123 48.9198 99.9474V101C47.6918 100.93 46.5515 100.895 45.4989 100.895C44.4814 100.86 43.3762 100.842 42.1833 100.842C41.4816 100.842 40.7623 100.86 40.0255 100.895C39.3238 100.895 38.7098 100.93 38.1835 101V99.9474C38.9554 99.8071 39.7273 99.3159 40.4992 98.4738C41.3061 97.6317 42.0956 96.1757 42.8675 94.1056L54.7091 63.6859C55.4108 63.756 56.1651 63.7911 56.9721 63.7911C57.8142 63.7911 58.5861 63.756 59.2878 63.6859ZM62.0245 85.8428V86.8954H46.341L46.8673 85.8428H62.0245ZM95.7031 63.0017C98.0188 63.0017 99.9135 63.3525 101.387 64.0543C102.896 64.7209 104.229 65.5103 105.387 66.4226C106.089 66.9489 106.615 67.019 106.966 66.6331C107.352 66.2121 107.615 65.2472 107.755 63.7385H108.966C108.896 65.1069 108.843 66.791 108.808 68.7909C108.773 70.7908 108.755 73.4223 108.755 76.6853H107.545C107.404 75.0362 107.176 73.5977 106.861 72.3697C106.58 71.1417 106.159 70.054 105.597 69.1067C105.036 68.1593 104.229 67.3173 103.176 66.5805C102.369 65.9138 101.457 65.4051 100.44 65.0542C99.4573 64.6683 98.4398 64.4753 97.3873 64.4753C95.4575 64.4753 93.826 65.0191 92.4927 66.1068C91.1945 67.1594 90.142 68.5628 89.335 70.3171C88.5631 72.0364 88.0017 73.9661 87.6508 76.1064C87.3351 78.2115 87.1772 80.3342 87.1772 82.4745C87.1772 84.6498 87.3526 86.8076 87.7035 88.9479C88.0543 91.0531 88.6157 92.9653 89.3876 94.6845C90.1946 96.4037 91.2647 97.7896 92.598 98.8422C93.9313 99.8597 95.5628 100.368 97.4925 100.368C98.51 100.368 99.51 100.193 100.492 99.8422C101.51 99.4913 102.422 98.9825 103.229 98.3159C104.773 97.2633 105.808 95.895 106.334 94.2108C106.896 92.4916 107.299 90.2636 107.545 87.5269H108.755C108.755 90.9303 108.773 93.6845 108.808 95.7897C108.843 97.8598 108.896 99.5966 108.966 101H107.755C107.615 99.4913 107.369 98.544 107.018 98.158C106.703 97.7721 106.159 97.8247 105.387 98.3159C104.089 99.2281 102.703 100.035 101.229 100.737C99.7907 101.403 97.9311 101.737 95.6505 101.737C91.8261 101.737 88.4578 100.982 85.5457 99.4738C82.6686 97.965 80.4231 95.7897 78.8091 92.9477C77.2303 90.1057 76.4408 86.6848 76.4408 82.685C76.4408 78.7554 77.2653 75.3169 78.9144 72.3697C80.5634 69.4224 82.8265 67.1243 85.7036 65.4753C88.6157 63.8262 91.9489 63.0017 95.7031 63.0017ZM135.856 101V99.9474C136.944 99.8772 137.751 99.7369 138.277 99.5264C138.838 99.3159 139.207 98.8948 139.382 98.2633C139.593 97.6317 139.698 96.6844 139.698 95.4213V69.3172C139.698 68.019 139.593 67.0717 139.382 66.4752C139.207 65.8437 138.838 65.4226 138.277 65.2121C137.751 64.9665 136.944 64.8262 135.856 64.7911V63.7385C136.873 63.7736 138.189 63.8087 139.803 63.8437C141.417 63.8788 143.031 63.8964 144.645 63.8964C146.364 63.8964 147.961 63.8788 149.434 63.8437C150.943 63.8087 152.153 63.7736 153.066 63.7385V64.7911C151.978 64.8262 151.154 64.9665 150.592 65.2121C150.031 65.4226 149.662 65.8437 149.487 66.4752C149.311 67.0717 149.224 68.019 149.224 69.3172V95.4213C149.224 96.6844 149.311 97.6317 149.487 98.2633C149.697 98.8948 150.066 99.3159 150.592 99.5264C151.154 99.7369 151.978 99.8772 153.066 99.9474V101C152.153 100.93 150.943 100.895 149.434 100.895C147.961 100.86 146.364 100.842 144.645 100.842C143.031 100.842 141.417 100.86 139.803 100.895C138.189 100.895 136.873 100.93 135.856 101ZM113.436 101V99.9474C114.524 99.8772 115.331 99.7369 115.857 99.5264C116.418 99.3159 116.787 98.8948 116.962 98.2633C117.173 97.6317 117.278 96.6844 117.278 95.4213V69.3172C117.278 68.019 117.173 67.0717 116.962 66.4752C116.787 65.8437 116.418 65.4226 115.857 65.2121C115.331 64.9665 114.524 64.8262 113.436 64.7911V63.7385C114.383 63.7736 115.646 63.8087 117.225 63.8437C118.804 63.8788 120.488 63.8964 122.278 63.8964C123.821 63.8964 125.348 63.8788 126.856 63.8437C128.4 63.8087 129.663 63.7736 130.646 63.7385V64.7911C129.558 64.8262 128.733 64.9665 128.172 65.2121C127.611 65.4226 127.242 65.8437 127.067 66.4752C126.891 67.0717 126.804 68.019 126.804 69.3172V95.4213C126.804 96.6844 126.891 97.6317 127.067 98.2633C127.277 98.8948 127.646 99.3159 128.172 99.5264C128.733 99.7369 129.558 99.8772 130.646 99.9474V101C129.663 100.93 128.4 100.895 126.856 100.895C125.348 100.86 123.821 100.842 122.278 100.842C120.488 100.842 118.804 100.86 117.225 100.895C115.646 100.895 114.383 100.93 113.436 101ZM122.857 82.7903V81.7377H143.645V82.7903H122.857ZM175.624 63.0017C179.483 63.0017 182.851 63.756 185.728 65.2647C188.605 66.7734 190.833 68.9488 192.412 71.7908C194.026 74.5977 194.833 78.0186 194.833 82.0535C194.833 85.9831 194.009 89.4216 192.36 92.3688C190.746 95.316 188.483 97.6142 185.57 99.2632C182.658 100.912 179.325 101.737 175.571 101.737C171.746 101.737 168.378 100.982 165.466 99.4738C162.589 97.965 160.343 95.7897 158.73 92.9477C157.151 90.1057 156.361 86.6848 156.361 82.685C156.361 78.7554 157.186 75.3169 158.835 72.3697C160.519 69.4224 162.8 67.1243 165.677 65.4753C168.554 63.8262 171.869 63.0017 175.624 63.0017ZM175.413 63.949C173.553 63.949 171.939 64.7384 170.571 66.3173C169.203 67.8962 168.133 70.0715 167.361 72.8434C166.624 75.6152 166.256 78.8255 166.256 82.4745C166.256 86.1936 166.677 89.4391 167.519 92.2109C168.396 94.9476 169.554 97.0703 170.992 98.5791C172.431 100.053 174.027 100.789 175.781 100.789C177.641 100.789 179.255 100 180.623 98.4212C182.027 96.8423 183.097 94.6669 183.834 91.8951C184.57 89.0882 184.939 85.8779 184.939 82.264C184.939 78.5098 184.518 75.2643 183.676 72.5276C182.834 69.7909 181.676 67.6857 180.202 66.2121C178.764 64.7034 177.167 63.949 175.413 63.949ZM233.345 63.7385V64.7911C232.292 64.9665 231.486 65.2998 230.924 65.791C230.363 66.2822 229.977 67.0366 229.766 68.0541C229.591 69.0716 229.503 70.5101 229.503 72.3697V101.053C229.047 100.982 228.556 100.947 228.03 100.947C227.503 100.947 226.942 100.982 226.345 101.053L203.241 73.8433V91.5267C203.241 93.667 203.346 95.316 203.557 96.4739C203.767 97.5966 204.241 98.4036 204.978 98.8948C205.715 99.386 206.873 99.7369 208.451 99.9474V101C207.785 100.93 206.89 100.895 205.767 100.895C204.68 100.86 203.645 100.842 202.662 100.842C201.89 100.842 201.083 100.86 200.241 100.895C199.434 100.895 198.75 100.93 198.189 101V99.9474C199.311 99.7369 200.136 99.4036 200.662 98.9475C201.224 98.4563 201.592 97.7019 201.768 96.6844C201.943 95.6318 202.031 94.1933 202.031 92.3688V69.3172C202.031 68.019 201.943 67.0717 201.768 66.4752C201.592 65.8437 201.224 65.4226 200.662 65.2121C200.101 64.9665 199.276 64.8262 198.189 64.7911V63.7385C198.75 63.7736 199.434 63.8087 200.241 63.8437C201.083 63.8788 201.89 63.8964 202.662 63.8964C203.539 63.8964 204.381 63.8788 205.188 63.8437C205.995 63.8087 206.732 63.7736 207.399 63.7385L228.293 87.6322V73.2118C228.293 71.0715 228.187 69.44 227.977 68.3172C227.801 67.1594 227.345 66.3349 226.609 65.8437C225.907 65.3174 224.731 64.9665 223.082 64.7911V63.7385C223.784 63.7736 224.679 63.8087 225.766 63.8437C226.889 63.8788 227.924 63.8964 228.872 63.8964C229.714 63.8964 230.538 63.8788 231.345 63.8437C232.152 63.8087 232.819 63.7736 233.345 63.7385ZM270.77 101V99.9474C271.857 99.8772 272.664 99.7369 273.191 99.5264C273.752 99.3159 274.121 98.8948 274.296 98.2633C274.506 97.6317 274.612 96.6844 274.612 95.4213V69.3172C274.612 68.019 274.506 67.0717 274.296 66.4752C274.121 65.8437 273.752 65.4226 273.191 65.2121C272.664 64.9665 271.857 64.8262 270.77 64.7911V63.7385C271.787 63.7736 273.103 63.8087 274.717 63.8437C276.331 63.8788 277.945 63.8964 279.559 63.8964C281.278 63.8964 282.875 63.8788 284.348 63.8437C285.857 63.8087 287.067 63.7736 287.98 63.7385V64.7911C286.892 64.8262 286.067 64.9665 285.506 65.2121C284.945 65.4226 284.576 65.8437 284.401 66.4752C284.225 67.0717 284.138 68.019 284.138 69.3172V95.4213C284.138 96.6844 284.225 97.6317 284.401 98.2633C284.611 98.8948 284.98 99.3159 285.506 99.5264C286.067 99.7369 286.892 99.8772 287.98 99.9474V101C287.067 100.93 285.857 100.895 284.348 100.895C282.875 100.86 281.278 100.842 279.559 100.842C277.945 100.842 276.331 100.86 274.717 100.895C273.103 100.895 271.787 100.93 270.77 101ZM248.35 101V99.9474C249.437 99.8772 250.244 99.7369 250.771 99.5264C251.332 99.3159 251.7 98.8948 251.876 98.2633C252.086 97.6317 252.192 96.6844 252.192 95.4213V69.3172C252.192 68.019 252.086 67.0717 251.876 66.4752C251.7 65.8437 251.332 65.4226 250.771 65.2121C250.244 64.9665 249.437 64.8262 248.35 64.7911V63.7385C249.297 63.7736 250.56 63.8087 252.139 63.8437C253.718 63.8788 255.402 63.8964 257.191 63.8964C258.735 63.8964 260.261 63.8788 261.77 63.8437C263.314 63.8087 264.577 63.7736 265.56 63.7385V64.7911C264.472 64.8262 263.647 64.9665 263.086 65.2121C262.525 65.4226 262.156 65.8437 261.981 66.4752C261.805 67.0717 261.718 68.019 261.718 69.3172V95.4213C261.718 96.6844 261.805 97.6317 261.981 98.2633C262.191 98.8948 262.56 99.3159 263.086 99.5264C263.647 99.7369 264.472 99.8772 265.56 99.9474V101C264.577 100.93 263.314 100.895 261.77 100.895C260.261 100.86 258.735 100.842 257.191 100.842C255.402 100.842 253.718 100.86 252.139 100.895C250.56 100.895 249.297 100.93 248.35 101ZM257.77 82.7903V81.7377H278.559V82.7903H257.77ZM320.053 63.7385C319.913 65.3875 319.808 66.984 319.738 68.5278C319.703 70.0715 319.685 71.2469 319.685 72.0539C319.685 72.7556 319.703 73.4398 319.738 74.1065C319.773 74.7731 319.808 75.3169 319.843 75.738H318.632C318.246 73.0012 317.615 70.8434 316.738 69.2646C315.896 67.6857 314.843 66.5805 313.58 65.9489C312.352 65.2823 310.984 64.949 309.475 64.949H308.054C307.107 64.949 306.37 65.0367 305.843 65.2121C305.352 65.3525 305.019 65.6682 304.844 66.1594C304.703 66.6506 304.633 67.4225 304.633 68.4751V96.2634C304.633 97.2809 304.703 98.0528 304.844 98.5791C305.019 99.0703 305.352 99.4036 305.843 99.579C306.37 99.7194 307.107 99.7895 308.054 99.7895H310.212C311.58 99.7895 312.878 99.4387 314.106 98.7369C315.369 98.0001 316.492 96.7721 317.475 95.0529C318.457 93.2986 319.194 90.9303 319.685 87.9479H320.895C320.79 89.1409 320.738 90.6847 320.738 92.5793C320.738 93.4214 320.755 94.6143 320.79 96.1581C320.825 97.7019 320.931 99.3159 321.106 101C319.317 100.93 317.299 100.895 315.054 100.895C312.808 100.86 310.808 100.842 309.054 100.842C308.142 100.842 306.984 100.842 305.58 100.842C304.177 100.842 302.651 100.86 301.002 100.895C299.353 100.895 297.686 100.912 296.002 100.947C294.318 100.947 292.739 100.965 291.265 101V99.9474C292.353 99.8772 293.16 99.7369 293.686 99.5264C294.247 99.3159 294.616 98.8948 294.791 98.2633C295.002 97.6317 295.107 96.6844 295.107 95.4213V69.3172C295.107 68.019 295.002 67.0717 294.791 66.4752C294.616 65.8437 294.247 65.4226 293.686 65.2121C293.16 64.9665 292.353 64.8262 291.265 64.7911V63.7385C292.774 63.7736 294.353 63.8087 296.002 63.8437C297.686 63.8437 299.335 63.8613 300.949 63.8964C302.598 63.8964 304.124 63.8964 305.528 63.8964C306.966 63.8964 308.142 63.8964 309.054 63.8964C310.668 63.8964 312.492 63.8964 314.527 63.8964C316.597 63.8613 318.439 63.8087 320.053 63.7385ZM312.106 81.7377C312.106 81.7377 312.106 81.9131 312.106 82.264C312.106 82.6148 312.106 82.7903 312.106 82.7903H303.054C303.054 82.7903 303.054 82.6148 303.054 82.264C303.054 81.9131 303.054 81.7377 303.054 81.7377H312.106ZM313.633 74.7906C313.492 76.7905 313.422 78.3168 313.422 79.3694C313.457 80.422 313.475 81.3868 313.475 82.264C313.475 83.1411 313.492 84.106 313.527 85.1586C313.562 86.2112 313.65 87.7374 313.79 89.7373H312.58C312.405 88.4742 312.036 87.3164 311.475 86.2638C310.913 85.2112 310.159 84.3692 309.212 83.7376C308.264 83.1061 307.107 82.7903 305.738 82.7903V81.7377C306.756 81.7377 307.65 81.5272 308.422 81.1061C309.194 80.65 309.843 80.0711 310.37 79.3694C310.931 78.6677 311.387 77.9133 311.738 77.1063C312.089 76.2993 312.317 75.5274 312.422 74.7906H313.633ZM325.032 63.7385C325.98 63.7736 327.243 63.8087 328.822 63.8437C330.4 63.8788 331.979 63.8964 333.558 63.8964C335.277 63.8964 336.926 63.8788 338.505 63.8437C340.119 63.8087 341.26 63.7911 341.926 63.7911C345.365 63.7911 348.189 64.142 350.4 64.8437C352.645 65.5454 354.329 66.5805 355.452 67.9488C356.575 69.2821 357.136 70.9487 357.136 72.9486C357.136 74.2117 356.873 75.4573 356.347 76.6853C355.855 77.8782 354.996 78.9834 353.768 80.0009C352.575 81.0184 350.908 81.8254 348.768 82.4219C346.663 83.0183 343.996 83.3166 340.768 83.3166H335.716V82.264H340.242C342.172 82.264 343.628 81.878 344.61 81.1061C345.628 80.2992 346.312 79.2466 346.663 77.9484C347.049 76.6151 347.242 75.1415 347.242 73.5275C347.242 70.7557 346.803 68.6155 345.926 67.1068C345.049 65.563 343.558 64.7911 341.453 64.7911C340.154 64.7911 339.312 65.0893 338.926 65.6858C338.575 66.2822 338.4 67.4927 338.4 69.3172V95.4213C338.4 96.6844 338.488 97.6317 338.663 98.2633C338.874 98.8948 339.242 99.3159 339.768 99.5264C340.33 99.7369 341.154 99.8772 342.242 99.9474V101C341.26 100.93 339.996 100.895 338.453 100.895C336.944 100.86 335.418 100.842 333.874 100.842C332.085 100.842 330.4 100.86 328.822 100.895C327.243 100.895 325.98 100.93 325.032 101V99.9474C326.12 99.8772 326.927 99.7369 327.453 99.5264C328.015 99.3159 328.383 98.8948 328.558 98.2633C328.769 97.6317 328.874 96.6844 328.874 95.4213V69.3172C328.874 68.019 328.769 67.0717 328.558 66.4752C328.383 65.8437 328.015 65.4226 327.453 65.2121C326.927 64.9665 326.12 64.8262 325.032 64.7911V63.7385ZM335.505 82.4219C336.874 82.457 338.119 82.5271 339.242 82.6324C340.365 82.7376 341.365 82.8429 342.242 82.9482C343.154 83.0183 343.944 83.071 344.61 83.1061C348.084 83.3166 350.663 83.9832 352.347 85.106C354.066 86.1936 355.154 87.8251 355.61 90.0005L356.715 95.4739C357.031 96.8072 357.364 97.7545 357.715 98.3159C358.066 98.8422 358.557 99.0878 359.189 99.0527C359.575 99.0527 359.908 98.9825 360.189 98.8422C360.469 98.6668 360.75 98.4212 361.031 98.1054L361.767 98.7896C360.75 99.8772 359.645 100.632 358.452 101.053C357.259 101.509 355.873 101.737 354.294 101.737C352.224 101.737 350.522 101.333 349.189 100.526C347.891 99.7194 347.066 98.2282 346.715 96.0529L345.821 90.7899C345.61 89.3514 345.33 88.0707 344.979 86.948C344.663 85.8252 344.224 84.9481 343.663 84.3165C343.102 83.6499 342.312 83.3166 341.295 83.3166H335.611L335.505 82.4219ZM380.717 63.6859L393.453 96.5791C393.979 97.8072 394.523 98.6668 395.085 99.158C395.681 99.6492 396.207 99.9123 396.663 99.9474V101C395.541 100.93 394.19 100.895 392.611 100.895C391.067 100.86 389.488 100.842 387.874 100.842C386.19 100.842 384.594 100.86 383.085 100.895C381.576 100.895 380.366 100.93 379.454 101V99.9474C381.243 99.8772 382.383 99.579 382.875 99.0527C383.366 98.4913 383.261 97.316 382.559 95.5266L373.822 71.6329L374.875 70.054L367.191 89.8952C366.384 92.0004 365.893 93.7021 365.717 95.0003C365.542 96.2985 365.63 97.2984 365.981 98.0001C366.331 98.7019 366.875 99.1931 367.612 99.4738C368.384 99.7544 369.296 99.9123 370.349 99.9474V101C369.121 100.93 367.981 100.895 366.928 100.895C365.91 100.86 364.805 100.842 363.612 100.842C362.911 100.842 362.191 100.86 361.455 100.895C360.753 100.895 360.139 100.93 359.612 101V99.9474C360.384 99.8071 361.156 99.3159 361.928 98.4738C362.735 97.6317 363.525 96.1757 364.296 94.1056L376.138 63.6859C376.84 63.756 377.594 63.7911 378.401 63.7911C379.243 63.7911 380.015 63.756 380.717 63.6859ZM383.454 85.8428V86.8954H367.77L368.296 85.8428H383.454ZM414.566 63.7385V64.7911C413.373 64.8262 412.46 64.9665 411.829 65.2121C411.232 65.4226 410.829 65.8437 410.618 66.4752C410.408 67.0717 410.303 68.019 410.303 69.3172V96.2634C410.303 97.2809 410.373 98.0528 410.513 98.5791C410.689 99.0703 410.987 99.4036 411.408 99.579C411.829 99.7194 412.46 99.7895 413.303 99.7895H415.46C416.513 99.7895 417.566 99.4738 418.618 98.8422C419.671 98.2106 420.653 97.3335 421.565 96.2107C422.478 95.0529 423.267 93.7372 423.934 92.2635C424.6 90.7548 425.074 89.1409 425.355 87.4217H426.565C426.46 88.6497 426.407 90.2285 426.407 92.1583C426.407 93.0354 426.425 94.2985 426.46 95.9476C426.495 97.5616 426.6 99.2457 426.776 101C424.986 100.93 422.969 100.895 420.723 100.895C418.478 100.86 416.478 100.842 414.724 100.842C413.811 100.842 412.653 100.842 411.25 100.842C409.847 100.842 408.32 100.86 406.671 100.895C405.022 100.895 403.356 100.912 401.671 100.947C399.987 100.947 398.408 100.965 396.935 101V99.9474C398.023 99.8772 398.83 99.7369 399.356 99.5264C399.917 99.3159 400.286 98.8948 400.461 98.2633C400.672 97.6317 400.777 96.6844 400.777 95.4213V69.3172C400.777 68.019 400.672 67.0717 400.461 66.4752C400.286 65.8437 399.917 65.4226 399.356 65.2121C398.83 64.9665 398.023 64.8262 396.935 64.7911V63.7385C397.882 63.7736 399.145 63.8087 400.724 63.8437C402.303 63.8788 403.987 63.8964 405.777 63.8964C407.426 63.8964 409.04 63.8788 410.618 63.8437C412.197 63.8087 413.513 63.7736 414.566 63.7385ZM446.362 63.7385C453.52 63.7385 458.818 65.3174 462.256 68.4751C465.73 71.5978 467.467 76.0888 467.467 81.9482C467.467 85.7726 466.607 89.1233 464.888 92.0004C463.204 94.8424 460.748 97.0528 457.52 98.6317C454.292 100.211 450.415 101 445.889 101C445.327 101 444.59 100.982 443.678 100.947C442.766 100.912 441.801 100.895 440.784 100.895C439.801 100.86 438.907 100.842 438.1 100.842C436.451 100.842 434.837 100.86 433.258 100.895C431.679 100.895 430.416 100.93 429.468 101V99.9474C430.556 99.8772 431.363 99.7369 431.889 99.5264C432.451 99.3159 432.819 98.8948 432.995 98.2633C433.205 97.6317 433.31 96.6844 433.31 95.4213V69.3172C433.31 68.019 433.205 67.0717 432.995 66.4752C432.819 65.8437 432.451 65.4226 431.889 65.2121C431.363 64.9665 430.556 64.8262 429.468 64.7911V63.7385C430.416 63.7736 431.679 63.8262 433.258 63.8964C434.837 63.9315 436.415 63.9315 437.994 63.8964C439.257 63.8613 440.696 63.8262 442.31 63.7911C443.924 63.756 445.275 63.7385 446.362 63.7385ZM446.731 64.6858C445.117 64.6858 444.064 64.984 443.573 65.5805C443.082 66.177 442.836 67.3875 442.836 69.2119V95.5266C442.836 97.351 443.082 98.5615 443.573 99.158C444.099 99.7544 445.169 100.053 446.783 100.053C449.45 100.053 451.573 99.3685 453.152 98.0001C454.73 96.5967 455.853 94.5617 456.52 91.8951C457.222 89.2286 457.572 85.9831 457.572 82.1587C457.572 78.2291 457.204 74.9836 456.467 72.4223C455.73 69.8259 454.555 67.8962 452.941 66.6331C451.362 65.3349 449.292 64.6858 446.731 64.6858Z" fill="#0D1C51"/>
<line x1="280" y1="40.3146" x2="465" y2="40.3146" stroke="#0D1C51" stroke-width="1.3709"/>
</svg>
